<svg width="96" height="96" viewBox="0 0 96 96" fill="none" xmlns="http://www.w3.org/2000/svg">
<path d="M54.7218 89.2597C77.5123 85.5439 92.9754 64.0564 89.2597 41.2659C85.5439 18.4754 64.0563 3.01222 41.2658 6.72797C18.4753 10.4437 3.01221 31.9313 6.72797 54.7218C10.4437 77.5123 31.9313 92.9755 54.7218 89.2597Z" fill="#F7F7FD"/>
<path d="M42.2547 50.1421H36.5411V44.4285H42.2547V50.1421ZM50.8847 44.4285H45.1711V50.1421H50.8847V44.4285ZM59.5147 44.4285H53.8011V50.1421H59.5147V44.4285ZM42.2845 52.9394H36.5708V58.6531H42.2845V52.9394ZM50.9145 52.9394H45.2008V58.6531H50.9145V52.9394ZM59.5444 52.9394H53.8308V58.6531H59.5444V52.9394ZM65.8235 32.8227V63.2061C65.8235 64.1584 65.0795 64.9024 64.1273 64.9024H32.0476C31.1251 64.9024 30.3513 64.1584 30.3513 63.2061V32.8227C30.3513 31.9001 31.1251 31.0967 32.0476 31.0967H64.1273C65.0795 31.0967 65.8235 31.8704 65.8235 32.8227V32.8227ZM44.07 35.2331V37.5245H52.1048V35.2331H44.07ZM62.4013 41.6014H33.7438V61.5099H62.4013V41.6014Z" fill="#62CCC5"/>
</svg>
