<svg width="119" height="119" viewBox="0 0 119 119" fill="none" xmlns="http://www.w3.org/2000/svg">
<path d="M88.6939 88.6939C105.022 72.3658 105.022 45.8928 88.6939 29.5646C72.3658 13.2365 45.8927 13.2365 29.5646 29.5646C13.2365 45.8928 13.2366 72.3658 29.5647 88.6939C45.8928 105.022 72.3658 105.022 88.6939 88.6939Z" fill="#F7F7FD"/>
<path d="M59.1303 43.9036C61.6896 43.9036 65.3499 51.9681 65.3499 51.9681C65.3499 51.9681 74.1584 52.9799 74.9619 55.3904C75.7356 57.8008 69.2185 63.812 69.2185 63.812C69.2185 63.812 70.9742 72.5015 68.9209 73.9894C66.8676 75.4774 59.1303 71.1326 59.1303 71.1326C59.1303 71.1326 51.4229 75.5071 49.3398 73.9894C47.2864 72.5015 49.0422 63.812 49.0422 63.812C49.0422 63.812 42.4953 57.8306 43.2988 55.3904C44.0725 52.9799 52.9108 51.9681 52.9108 51.9681C52.9108 51.9681 56.6008 43.9036 59.1303 43.9036Z" fill="#62CCC5"/>
</svg>
